# AST/ASF file generated using VICON BodyLanguage
# -----------------------------------------------
:version 1.10
:name VICON
:units
  mass 1.0
  length 0.45
  angle deg
:documentation
   .ast/.asf automatically generated from VICON data using
   VICON BodyBuilder and BodyLanguage model FoxedUp or BRILLIANT.MOD
:root
   order TX TY TZ RX RY RZ
   axis XYZ
   position 0 0 0  
   orientation 0 0 0 
:bonedata
  begin
     id 1 
     name lhipjoint
     direction 0.567725 -0.736092 0.368589 
     length 2.42353 
     axis 0 0 0  XYZ
  end
  begin
     id 2 
     name lfemur
     direction 0.34202 -0.939693 0  
     length 7.24894  
     axis 0 0 20  XYZ
    dof rx ry rz
    limits (-160.0 20.0)
           (-70.0 70.0)
           (-60.0 70.0)
  end
  begin
     id 3 
     name ltibia
     direction 0.34202 -0.939693 0   
     length 7.6997   
     axis 0 0 20   XYZ
    dof rx
    limits (-10.0 170.0)
  end
  begin
     id 4 
     name lfoot
     direction 0.100767 -0.276854 0.955614   
     length 2.37556   
     axis -90 7.62852e-016 20   XYZ
    dof rx rz
    limits (-45.0 90.0)
           (-70.0 20.0)
  end
  begin
     id 5 
     name ltoes
     direction 1.53592e-011 -4.21894e-011 1   
     length 1.18363   
     axis -90 7.62852e-016 20   XYZ
    dof rx
    limits (-90.0 20.0)
  end
  begin
     id 6 
     name rhipjoint
     direction -0.556459 -0.742938 0.372017   
     length 2.4012  
     axis 0 0 0  XYZ 
  end
  begin
     id 7 
     name rfemur
     direction -0.34202 -0.939693 0   
     length 7.5119   
     axis 0 0 -20   XYZ
    dof rx ry rz
    limits (-160.0 20.0)
           (-70.0 70.0)
           (-70.0 60.0)
  end
  begin
     id 8 
     name rtibia
     direction -0.34202 -0.939693 0   
     length 7.50155   
     axis 0 0 -20   XYZ
    dof rx
    limits (-10.0 170.0)
 end
 begin
     id 9 
     name rfoot
     direction -0.118427 -0.325376 0.938139   
     length 2.32487  
     axis -90 -7.62852e-016 -20   XYZ
    dof rx rz
    limits (-45.0 90.0)
           (-20.0 70.0)
  end
  begin
     id 10 
     name rtoes
     direction -1.53525e-011 -4.21868e-011 1   
     length 1.15233   
     axis -90 -7.62852e-016 -20   XYZ
    dof rx
    limits (-90.0 20.0)
  end
  begin
     id 11 
     name lowerback
     direction 0.0287568 0.999577 -0.00434502   
     length 2.15243   
     axis 0 0 0   XYZ
    dof rx ry rz
    limits (-20.0 45.0)
           (-30.0 30.0)
           (-30.0 30.0)
  end
  begin
     id 12 
     name upperback
     direction 0.0294009 0.99956 0.00404628   
     length 2.15427   
     axis 0 0 0   XYZ
    dof rx ry rz
    limits (-20.0 45.0)
           (-30.0 30.0)
           (-30.0 30.0)
  end
  begin
     id 13 
     name thorax
     direction 0.0151014 0.999868 0.0059419   
     length 2.14898   
     axis 0 0 0   XYZ
    dof rx ry rz
    limits (-20.0 45.0)
           (-30.0 30.0)
           (-30.0 30.0)
  end
  begin
     id 14 
     name lowerneck
     direction -0.0249197 0.989906 0.139515   
     length 1.6861   
     axis 0 0 0   XYZ
    dof rx ry rz
    limits (-20.0 45.0)
           (-30.0 30.0)
           (-30.0 30.0)
  end
  begin
     id 15 
     name upperneck
     direction 0.0438463 0.988795 -0.142693   
     length 1.71276   
     axis 0 0 0   XYZ
    dof rx ry rz
    limits (-20.0 45.0)
           (-30.0 30.0)
           (-30.0 30.0)
  end
  begin
     id 16
     name head
     direction 0.0148499 0.997845 -0.0639186  
     length 1.7209  
     axis 0 0 0   XYZ
    dof rx ry rz
    limits (-20.0 45.0)
           (-30.0 30.0)
           (-30.0 30.0)
  end
  begin
     id 17 
     name lclavicle
     direction 0.940298 0.323464 -0.105876  
     length 3.9048  
     axis 0 0 0   XYZ
    dof ry rz
    limits (-20.0 10.0)
           (0.0 20.0)
  end
  begin
     id 18 
     name lhumerus
     direction 1 -4.48954e-011 -4.9675e-028   
     length 4.6851   
     axis 180 -30 -90   XYZ
    dof rx ry rz
    limits (-60.0 90.0)
           (-90.0 90.0)
           (-90.0 90.0)
  end
  begin
     id 19
     name lradius
     direction 1 -4.48992e-011 -1.03359e-026   
     length 3.39626   
     axis 180 -30 -90   XYZ
    dof rx
    limits (-10.0 170.0)
  end
  begin
     id 20
     name lwrist
     direction 1 -4.48906e-011 -1.67336e-026   
     length 1.69813   
     axis 9.90442e-015 90 90   XYZ
    dof ry
    limits (-180.0 0.0)
 end
  begin
     id 21 
     name lhand
     direction 1 -4.49006e-011 -3.34673e-026   
     length 0.486078   
     axis 2.1355e-014 90 90   XYZ
    dof rx rz
    limits (-90.0 90.0)
           (-45.0 45.0)
  end
  begin
     id 22 
     name lfingers
     direction 1 -4.48992e-011 -6.69345e-026   
     length 0.391889   
     axis 4.27099e-014 90 90   XYZ
    dof rx
    limits (0.0 90.0)
  end
  begin
     id 23
     name lthumb
     direction 0.707107 -6.34926e-011 0.707107   
     length 0.562676   
     axis -90 45 2.85299e-015   XYZ
    dof rx rz
    limits (-45.0 45.0)
           (-45.0 45.0)
  end
  begin
     id 24 
     name rclavicle
     direction -0.882459 0.414895 -0.221648   
     length 3.44646  
     axis 0 0 0   XYZ 
    dof ry rz
    limits (-10.0 20.0)
           (-20.0 0.0)
  end
  begin
     id 25 
     name rhumerus
     direction -1 -4.48962e-011 -2.37984e-027  
     length 5.55576   
     axis 180 30 90   XYZ
    dof rx ry rz
    limits (-90.0 60.0)
           (-90.0 90.0)
           (-90.0 90.0)
  end
  begin
     id 26 
     name rradius
     direction -1 -4.48982e-011 -6.86791e-027   
     length 3.32774   
     axis 180 30 90   XYZ
    dof rx
    limits (-10.0 170.0)
  end
  begin
     id 27 
     name rwrist
     direction -1 -4.48961e-011 -1.67336e-026   
     length 1.66387   
     axis 9.90442e-015 -90 -90   XYZ
    dof ry
    limits (-180.0 0.0)
  end
  begin
     id 28
     name rhand
     direction -1 -4.4897e-011 -3.34673e-026   
     length 0.507628   
     axis 2.1355e-014 -90 -90   XYZ
    dof rx rz
    limits (-90.0 90.0)
           (-45.0 45.0)
  end
  begin
     id 29
     name rfingers
     direction -1 -4.48854e-011 -6.69345e-026   
     length 0.409263   
     axis 4.27099e-014 -90 -90   XYZ
    dof rx
    limits (0.0 90.0)
  end
  begin
     id 30
     name rthumb
     direction -0.707107 -6.34913e-011 0.707107   
     length 0.587622   
     axis -90 -45 -2.85299e-015   XYZ
    dof rx rz
    limits (-45.0 45.0)
           (-45.0 45.0)
  end
:hierarchy
  begin
    root lhipjoint rhipjoint lowerback
    lhipjoint lfemur
    lfemur ltibia
    ltibia lfoot
    lfoot ltoes
    rhipjoint rfemur
    rfemur rtibia
    rtibia rfoot
    rfoot rtoes
    lowerback upperback
    upperback thorax
    thorax lowerneck lclavicle rclavicle
    lowerneck upperneck
    upperneck head
    lclavicle lhumerus
    lhumerus lradius
    lradius lwrist
    lwrist lhand lthumb
    lhand lfingers
    rclavicle rhumerus
    rhumerus rradius
    rradius rwrist
    rwrist rhand rthumb
    rhand rfingers
  end

#!OML:ASF E:\motion texture\Top Level 1\Subject 1\Session 1\male.ASF
:FULLY-SPECIFIED
:DEGREES
122
root 41.1064 17.1551 4.15792 117.773 -82.1389 -105.699
lowerback -1.93811 2.24882 7.17044
upperback 0.438449 2.79303 0.412278
thorax 1.86542 1.46088 -3.48227
lowerneck -15.5123 -3.71232 -8.14563
upperneck 2.91838 -4.1924 9.45899
head 3.74928 -1.73557 3.9174
rclavicle 7.95139e-015 -1.70955e-014
rhumerus -19.3288 15.3932 -94.2459
rradius 45.2652
rwrist 4.4691
rhand -18.3689 -31.0185
rfingers 7.12502
rthumb 7.91427 -60.8504
lclavicle 7.95139e-015 -1.70955e-014
lhumerus -24.6936 4.61089 86.0539
lradius 37.4792
lwrist -10.6162
lhand -13.1035 30.65
lfingers 7.12502
lthumb 12.9935 60.2253
rfemur -0.352928 0.635579 30.6105
rtibia 19.1166
rfoot -26.3225 -13.5732
rtoes 16.5685
lfemur -41.3568 -0.0153199 -4.74739
ltibia 21.4058
lfoot -2.55741 7.52202
ltoes -12.7979
123
root 40.9736 17.1444 4.16978 117.514 -82.2303 -105.377
lowerback -1.931 2.27092 7.07262
upperback 0.443064 2.82889 0.311959
thorax 1.87042 1.47953 -3.52995
lowerneck -15.5173 -3.74189 -8.14004
upperneck 2.80785 -4.23727 9.56258
head 3.72344 -1.75444 3.94528
rclavicle -1.59028e-015 9.14409e-015
rhumerus -18.9618 16.0583 -94.3833
rradius 46.1234
rwrist 4.52672
rhand -18.6535 -31.1087
rfingers 7.12502
rthumb 7.63962 -60.9507
lclavicle -1.59028e-015 9.14409e-015
lhumerus -24.1162 3.76808 86.581
lradius 38.0276
lwrist -10.0206
lhand -13.1951 30.9517
lfingers 7.12502
lthumb 12.9051 60.5327
rfemur -0.345772 0.533315 30.4189
rtibia 19.7584
rfoot -26.1014 -13.5258
rtoes 15.742
lfemur -41.4661 -0.0689843 -4.89758
ltibia 21.4391
lfoot -2.4865 7.42183
ltoes -12.2879
124
root 40.8384 17.1345 4.1823 117.204 -82.3315 -105.014
lowerback -1.92077 2.29019 6.9646
upperback 0.448668 2.86147 0.209171
thorax 1.87395 1.49641 -3.57475
lowerneck -15.5236 -3.77267 -8.13475
upperneck 2.7066 -4.28398 9.66696
head 3.70091 -1.77412 3.97328
rclavicle -3.29983e-014 -3.57812e-015
rhumerus -18.5844 16.728 -94.5161
rradius 46.9748
rwrist 4.59591
rhand -18.9525 -31.1963
rfingers 7.12502
rthumb 7.35097 -61.0486
lclavicle -3.29983e-014 -3.57812e-015
lhumerus -23.5196 2.89615 87.1173
lradius 38.5781
lwrist -9.39096
lhand -13.2783 31.2791
lfingers 7.12502
lthumb 12.8249 60.8651
rfemur -0.373584 0.418289 30.2106
rtibia 20.4768
rfoot -25.8112 -13.4843
rtoes 14.8639
lfemur -41.5586 -0.119419 -5.0805
ltibia 21.5373
lfoot -2.42303 7.29391
ltoes -11.7703
125
root 40.701 17.1257 4.19545 116.831 -82.444 -104.598
lowerback -1.9056 2.30538 6.8461
upperback 0.455204 2.88923 0.103334
thorax 1.87472 1.51071 -3.61725
lowerneck -15.5315 -3.80393 -8.13069
upperneck 2.61439 -4.33144 9.77328
head 3.68162 -1.79401 4.00201
rclavicle -2.98177e-016 -9.54166e-015
rhumerus -18.2086 17.393 -94.6465
rradius 47.8444
rwrist 4.68469
rhand -19.2641 -31.2839
rfingers 7.12502
rthumb 7.05021 -61.1465
lclavicle -2.98177e-016 -9.54166e-015
lhumerus -22.907 1.99515 87.6598
lradius 39.1348
lwrist -8.72339
lhand -13.3483 31.6207
lfingers 7.12502
lthumb 12.7574 61.211
rfemur -0.438852 0.290175 29.9851
rtibia 21.2735
rfoot -25.4488 -13.4523
rtoes 13.9307
lfemur -41.6336 -0.168261 -5.29727
ltibia 21.6973
lfoot -2.36609 7.13736
ltoes -11.2485
126
root 40.5614 17.1178 4.20915 116.381 -82.5679 -104.116
lowerback -1.8858 2.31612 6.71726
upperback 0.463145 2.91158 -0.00545545
thorax 1.87336 1.52218 -3.65743
lowerneck -15.5411 -3.8358 -8.12944
upperneck 2.53111 -4.37977 9.8841
head 3.6657 -1.81403 4.03252
rclavicle 2.6339e-014 2.3059e-014
rhumerus -17.8204 18.0648 -94.7738
rradius 48.7047
rwrist 4.78223
rhand -19.5893 -31.3762
rfingers 7.12502
rthumb 6.73629 -61.249
lclavicle 2.6339e-014 2.3059e-014
lhumerus -22.2776 1.06419 88.2071
lradius 39.6987
lwrist -8.01731
lhand -13.4071 31.9812
lfingers 7.12502
lthumb 12.7008 61.575
rfemur -0.543075 0.147201 29.7437
rtibia 22.148
rfoot -25.0032 -13.4339
rtoes 12.9654
lfemur -41.6902 -0.217734 -5.5455
ltibia 21.9156
lfoot -2.31546 6.95387
ltoes -10.7201
127
root 40.4198 17.111 4.22338 115.861 -82.702 -103.577
lowerback -1.86034 2.32333 6.57774
upperback 0.473175 2.92975 -0.117076
thorax 1.8701 1.53142 -3.69493
lowerneck -15.5522 -3.86862 -8.12731
upperneck 2.45582 -4.42962 9.9934
head 3.65258 -1.83478 4.06227
rclavicle -3.18055e-014 -1.03368e-014
rhumerus -17.4242 18.7391 -94.8972
rradius 49.5643
rwrist 4.89833
rhand -19.9331 -31.4613
rfingers 7.12502
rthumb 6.40444 -61.3445
lclavicle -3.18055e-014 -1.03368e-014
lhumerus -21.6319 0.102373 88.7576
lradius 40.2711
lwrist -7.27014
lhand -13.4536 32.359
lfingers 7.12502
lthumb 12.656 61.9556
rfemur -0.686534 -0.00908977 29.4865
rtibia 23.1008
rfoot -24.466 -13.4338
rtoes 11.9818
lfemur -41.7237 -0.269408 -5.82243
ltibia 22.1861
lfoot -2.27138 6.74852
ltoes -10.1759
